<?xml version="1.0" encoding="iso-8859-1"?>
<!-- Uploaded to: SVG Repo, www.svgrepo.com, Generator: SVG Repo Mixer Tools -->
<svg height="800px" width="800px" version="1.1" id="Layer_1" xmlns="http://www.w3.org/2000/svg" xmlns:xlink="http://www.w3.org/1999/xlink" 
	 viewBox="0 0 504.4 504.4" xml:space="preserve">
<g>
	<path style="fill:#DF5C4E;" d="M273.6,15.6C273.6,9.2,268.4,4,262,4h-16.4C239.2,4,234,9.2,234,15.6V236c0,6.4,5.2,11.6,11.6,11.6
		H262c6.4,0,11.6-5.2,11.6-11.6V15.6z"/>
	<path style="fill:#DF5C4E;" d="M309.6,88.4V130c68,22.8,115.2,86.4,115.2,160.8c0,94-76,170-170,170s-171.2-76-171.2-170
		c0-74.4,49.6-138,113.6-160.8V88.4C109.2,112.8,44,194,44,290.8c0,116,94.4,210,210.4,210s209.6-94,209.6-210
		C464.4,194,401.6,112.8,309.6,88.4z"/>
</g>
<path d="M258,252h-16.4c-8.8,0-15.6-7.2-15.6-15.6V15.6C226,6.8,233.2,0,241.6,0H258c8.8,0,15.6,7.2,15.6,15.6v220.8
	C273.6,244.8,266.4,252,258,252z M241.2,8c-4.4,0-7.6,3.6-7.6,7.6v220.8c0,4.4,3.6,7.6,7.6,7.6h16.4c4.4,0,7.6-3.6,7.6-7.6V15.6
	c0-4.4-3.6-7.6-7.6-7.6H241.2z"/>
<path d="M253.6,504.4c-118.8,0-215.2-96-215.2-214C38.4,194,102,109.2,192.8,84c1.2-0.4,2.4,0,3.6,0.8c0.8,0.8,1.6,2,1.6,3.2v41.6
	c0,1.6-1.2,3.2-2.8,3.6C129.6,156.8,85.6,220,85.6,290.4c0,91.6,75.6,166,168.4,166c90.8,0,164.8-74.4,164.8-166
	c0-70.8-46-134-114.4-157.2c-1.6-0.4-2.8-2-2.8-3.6V88c0-1.2,0.4-2.4,1.6-3.2c0.8-0.8,2.4-1.2,3.6-0.8C402,109.2,466,192,466,290.4
	C465.6,408.8,370.4,504.4,253.6,504.4z M189.6,93.6c-84.8,26-143.2,106-143.2,197.2c0,113.6,93.2,206,207.2,206
	c112.4,0,204-92.4,204-206c0-92.8-59.2-171.2-148-197.2v33.6C380,152,426.8,217.6,426.8,290.8c0,96-77.6,174-172.8,174
	c-97.2,0-176.4-78-176.4-174c0-72.8,44.8-138.4,112.4-163.6V93.6H189.6z"/>
</svg>